<?xml version="1.0" encoding="UTF-8"?>
<svg width="131px" height="91px" viewBox="0 0 131 91" version="1.1" xmlns="http://www.w3.org/2000/svg" xmlns:xlink="http://www.w3.org/1999/xlink">
    <!-- Generator: Sketch 52.5 (67469) - http://www.bohemiancoding.com/sketch -->
    <title>Group</title>
    <desc>Created with Sketch.</desc>
    <g id="Page-1" stroke="none" stroke-width="1" fill="none" fill-rule="evenodd">
        <g id="How-to-Get-a-Goodnight's-Sleep" transform="translate(-655.000000, -633.000000)" fill="#FFFFFF">
            <g id="Group" transform="translate(656.000000, 633.000000)">
                <path d="M126.428571,64.2857143 L124.285714,64.2857143 L124.285714,47.1428571 C124.280117,42.8877352 121.757031,39.0391894 117.857143,37.3371429 L117.857143,10.7142857 C117.851545,6.45916381 115.32846,2.61061798 111.428571,0.908571429 L17.1428571,0.908571429 C13.2429685,2.61061798 10.7198834,6.45916381 10.7142857,10.7142857 L10.7142857,37.3371429 C6.81439709,39.0391894 4.29131197,42.8877352 4.28571429,47.1428571 L4.28571429,64.2857143 L2.14285714,64.2857143 C0.959389822,64.2857143 0,65.2451041 0,66.4285714 L0,90 C8.73351648,90 115.442182,90 128.571429,90 L128.571429,66.4285714 C128.571429,65.2451041 127.612039,64.2857143 126.428571,64.2857143 Z M15,10.7142857 C15,7.16388375 17.8781695,4.28571429 21.4285714,4.28571429 L107.142857,4.28571429 C110.693259,4.28571429 113.571429,7.16388375 113.571429,10.7142857 L113.571429,36.4285714 L108.094286,36.4285714 C108.865552,35.1314003 109.276833,33.6519712 109.285714,32.1428571 L109.285714,23.5714286 C109.285714,18.8375593 105.448155,15 100.714286,15 L77.1428571,15 C72.4089879,15 68.5714286,18.8375593 68.5714286,23.5714286 L68.5714286,32.1428571 C68.5803099,33.6519712 68.9915912,35.1314003 69.7628571,36.4285714 L58.8085714,36.4285714 C59.5798373,35.1314003 59.9911186,33.6519712 60,32.1428571 L60,23.5714286 C60,18.8375593 56.1624407,15 51.4285714,15 L27.8571429,15 C23.1232736,15 19.2857143,18.8375593 19.2857143,23.5714286 L19.2857143,32.1428571 C19.2945957,33.6519712 19.7058769,35.1314003 20.4771429,36.4285714 L15,36.4285714 L15,10.7142857 Z M105,23.5714286 L105,32.1428571 C105,34.5097918 103.08122,36.4285714 100.714286,36.4285714 L77.1428571,36.4285714 C74.7759225,36.4285714 72.8571429,34.5097918 72.8571429,32.1428571 L72.8571429,23.5714286 C72.8571429,21.2044939 74.7759225,19.2857143 77.1428571,19.2857143 L100.714286,19.2857143 C103.08122,19.2857143 105,21.2044939 105,23.5714286 Z M55.7142857,23.5714286 L55.7142857,32.1428571 C55.7142857,34.5097918 53.7955061,36.4285714 51.4285714,36.4285714 L27.8571429,36.4285714 C25.4902082,36.4285714 23.5714286,34.5097918 23.5714286,32.1428571 L23.5714286,23.5714286 C23.5714286,21.2044939 25.4902082,19.2857143 27.8571429,19.2857143 L51.4285714,19.2857143 C53.7955061,19.2857143 55.7142857,21.2044939 55.7142857,23.5714286 Z M8.57142857,47.1428571 C8.57142857,43.5924552 11.449598,40.7142857 15,40.7142857 L113.571429,40.7142857 C117.121831,40.7142857 120,43.5924552 120,47.1428571 L120,64.2857143 L8.57142857,64.2857143 L8.57142857,47.1428571 Z M124.285714,85.7142857 L4.28571429,85.7142857 L4.28571429,81.4285714 L4.28571429,77.1428571 L4.28571429,68.5714286 L124.285714,68.5714286 L124.285714,85.7142857 Z" id="Shape" stroke="#FFFFFF" fill-rule="nonzero" stroke-linecap="round" stroke-linejoin="round"></path>
                <path d="M40.1594823,77.1428571 L6.42857143,77.1428571 C5.24510411,77.1428571 4.28571429,77.8623995 4.28571429,78.75 C4.28571429,79.6376005 5.24510411,80.3571429 6.42857143,80.3571429 L40.1594823,80.3571429 C41.3429496,80.3571429 42.3023394,79.6376005 42.3023394,78.75 C42.3023394,77.8623995 41.3429496,77.1428571 40.1594823,77.1428571 Z" id="Path"></path>
                <path d="M53.5714286,77.1428571 L49.2857143,77.1428571 C48.102247,77.1428571 47.1428571,77.8623995 47.1428571,78.75 C47.1428571,79.6376005 48.102247,80.3571429 49.2857143,80.3571429 L53.5714286,80.3571429 C54.7548959,80.3571429 55.7142857,79.6376005 55.7142857,78.75 C55.7142857,77.8623995 54.7548959,77.1428571 53.5714286,77.1428571 Z" id="Path"></path>
                <path d="M104.642857,45 C103.656634,45 102.857143,45.7994915 102.857143,46.7857143 C102.857143,47.7719371 103.656634,48.5714286 104.642857,48.5714286 L108.214286,48.5714286 C109.200508,48.5714286 110,49.3709201 110,50.3571429 L110,53.9285714 C110,54.9147942 110.799492,55.7142857 111.785714,55.7142857 C112.771937,55.7142857 113.571429,54.9147942 113.571429,53.9285714 L113.571429,50.3571429 C113.571429,47.3984746 111.172954,45 108.214286,45 L104.642857,45 Z" id="Path"></path>
            </g>
        </g>
    </g>
</svg>