<?xml version="1.0" encoding="UTF-8"?>
<svg width="112px" height="112px" viewBox="0 0 112 112" version="1.1" xmlns="http://www.w3.org/2000/svg" xmlns:xlink="http://www.w3.org/1999/xlink">
    <!-- Generator: Sketch 52.5 (67469) - http://www.bohemiancoding.com/sketch -->
    <title>Group</title>
    <desc>Created with Sketch.</desc>
    <g id="Page-1" stroke="none" stroke-width="1" fill="none" fill-rule="evenodd">
        <g id="How-to-Get-a-Goodnight's-Sleep" transform="translate(-264.000000, -371.000000)" fill="#FFFFFF">
            <g id="Group" transform="translate(264.000000, 371.000000)">
                <path d="M61.6215385,62.7476923 C61.0353846,62.7476923 60.44,62.5769231 59.9230769,62.2169231 L31.9076923,42.8923077 C30.5415385,41.9507692 30.2,40.0815385 31.1415385,38.7153846 C32.0784615,37.3584615 33.9476923,37.0030769 35.3138462,37.9492308 L63.3292308,57.2784615 C64.6953846,58.22 65.0369231,60.0892308 64.0953846,61.4507692 C63.5138462,62.2953846 62.5769231,62.7476923 61.6215385,62.7476923 Z" id="Path"></path>
                <path d="M49.9492308,62.7476923 C48.9476923,62.7476923 47.9692308,62.2492308 47.3969231,61.3353846 C46.5246154,59.9276923 46.9492308,58.0769231 48.3569231,57.2 L83.9046154,35.0138462 C85.3030769,34.1323077 87.1538462,34.5661538 88.04,35.9692308 C88.9123077,37.3769231 88.4876923,39.2276923 87.08,40.1046154 L51.5323077,62.2907692 C51.0384615,62.6046154 50.4892308,62.7476923 49.9492308,62.7476923 Z" id="Path"></path>
                <path d="M56,19.6723077 C54.3430769,19.6723077 53,18.3292308 53,16.6723077 L53,12.8230769 C53,11.1661538 54.3430769,9.82307692 56,9.82307692 C57.6569231,9.82307692 59,11.1661538 59,12.8230769 L59,16.6676923 C59.0046154,18.3292308 57.6615385,19.6723077 56,19.6723077 Z" id="Path"></path>
                <path d="M56,102.172308 C54.3430769,102.172308 53,100.829231 53,99.1723077 L53,95.3230769 C53,93.6661538 54.3430769,92.3230769 56,92.3230769 C57.6569231,92.3230769 59,93.6661538 59,95.3230769 L59,99.1676923 C59.0046154,100.829231 57.6615385,102.172308 56,102.172308 Z" id="Path"></path>
                <path d="M28.1923077,31.1876923 C27.4261538,31.1876923 26.6553846,30.8969231 26.0692308,30.3107692 L23.3507692,27.5923077 C22.1784615,26.42 22.1830769,24.5184615 23.3553846,23.3461538 C24.5184615,22.1784615 26.4246154,22.1784615 27.5969231,23.3461538 L30.3153846,26.0646154 C31.4876923,27.2369231 31.4830769,29.1384615 30.3107692,30.3061538 C29.7292308,30.8969231 28.9584615,31.1876923 28.1923077,31.1876923 Z" id="Path"></path>
                <path d="M86.5307692,89.5261538 C85.7646154,89.5261538 84.9938462,89.2353846 84.4076923,88.6492308 L81.6892308,85.9307692 C80.5169231,84.7584615 80.5215385,82.8569231 81.6938462,81.6892308 C82.8569231,80.5215385 84.7630769,80.5215385 85.9353846,81.6892308 L88.6538462,84.4076923 C89.8261538,85.58 89.8215385,87.4815385 88.6492308,88.6492308 C88.0676923,89.2353846 87.2969231,89.5261538 86.5307692,89.5261538 Z" id="Path"></path>
                <path d="M16.6769231,59 L12.8276923,59 C11.1707692,59 9.82769231,57.6569231 9.82769231,56 C9.82769231,54.3430769 11.1707692,53 12.8276923,53 L16.6769231,53 C18.3338462,53 19.6769231,54.3430769 19.6769231,56 C19.6769231,57.6569231 18.3338462,59 16.6769231,59 Z" id="Path"></path>
                <path d="M99.1769231,59 L95.3276923,59 C93.6707692,59 92.3276923,57.6569231 92.3276923,56 C92.3276923,54.3430769 93.6707692,53 95.3276923,53 L99.1769231,53 C100.833846,53 102.176923,54.3430769 102.176923,56 C102.176923,57.6569231 100.833846,59 99.1769231,59 Z" id="Path"></path>
                <path d="M25.4738462,89.5261538 C24.7076923,89.5261538 23.9415385,89.2353846 23.3553846,88.6492308 C22.1830769,87.4769231 22.1784615,85.5753846 23.3507692,84.4076923 L26.0692308,81.6892308 C27.2415385,80.5169231 29.1384615,80.5215385 30.3107692,81.6892308 C31.4830769,82.8615385 31.4876923,84.7630769 30.3153846,85.9307692 L27.5969231,88.6492308 C27.0107692,89.2353846 26.24,89.5261538 25.4738462,89.5261538 Z" id="Path"></path>
                <path d="M83.8123077,31.1876923 C83.0461538,31.1876923 82.28,30.8969231 81.6938462,30.3107692 C80.5215385,29.1384615 80.5169231,27.2369231 81.6892308,26.0692308 L84.4076923,23.3507692 C85.58,22.1784615 87.4769231,22.1830769 88.6492308,23.3507692 C89.8215385,24.5230769 89.8261538,26.4246154 88.6538462,27.5923077 L85.9353846,30.3107692 C85.3492308,30.8969231 84.5784615,31.1876923 83.8123077,31.1876923 Z" id="Path"></path>
                <path d="M55.7415385,111.421538 C55.3446154,111.421538 54.9523077,111.343077 54.5784615,111.186154 L17.5861538,95.6461538 C16.8523077,95.3415385 16.2753846,94.7507692 15.9707692,94.0123077 L0.8,56.8676923 C0.5,56.1292308 0.504615385,55.3076923 0.809230769,54.5692308 L16.3538462,17.5861538 C16.6630769,16.8523077 17.2492308,16.2707692 17.9876923,15.9707692 L55.1323077,0.8 C55.8753846,0.5 56.6969231,0.504615385 57.4307692,0.809230769 L94.4230769,16.3446154 C95.1569231,16.6492308 95.7338462,17.24 96.0384615,17.9784615 L111.204615,55.1230769 C111.504615,55.8615385 111.5,56.6830769 111.195385,57.4169231 L95.66,94.4092308 C95.3507692,95.1430769 94.7646154,95.7246154 94.0261538,96.0246154 L56.8815385,111.195385 C56.5123077,111.347692 56.1246154,111.421538 55.7415385,111.421538 Z M21.0569231,90.5969231 L55.76,105.172308 L90.6015385,90.9430769 L105.176923,56.2446154 L90.9476923,21.4030769 L56.2446154,6.82769231 L21.4030769,21.0569231 L6.82307692,55.7553846 L21.0569231,90.5969231 Z" id="Shape" fill-rule="nonzero"></path>
            </g>
        </g>
    </g>
</svg>