<?xml version="1.0" encoding="UTF-8"?>
<svg width="74px" height="122px" viewBox="0 0 74 122" version="1.1" xmlns="http://www.w3.org/2000/svg" xmlns:xlink="http://www.w3.org/1999/xlink">
    <!-- Generator: Sketch 52.5 (67469) - http://www.bohemiancoding.com/sketch -->
    <title>Group 2</title>
    <desc>Created with Sketch.</desc>
    <g id="Page-1" stroke="none" stroke-width="1" fill="none" fill-rule="evenodd">
        <g id="How-to-Get-a-Goodnight's-Sleep" transform="translate(-684.000000, -366.000000)" fill="#FFFFFF">
            <g id="Group-2" transform="translate(685.000000, 367.000000)">
                <path d="M62.6666667,120 L9.33333333,120 C4.13333333,120 0,115.866667 0,110.666667 L0,9.33333333 C0,4.13333333 4.13333333,0 9.33333333,0 L62.6666667,0 C67.8666667,0 72,4.13333333 72,9.33333333 L72,110.666667 C72,115.866667 67.8666667,120 62.6666667,120 Z M9.33333333,2.66666667 C5.6,2.66666667 2.66666667,5.6 2.66666667,9.33333333 L2.66666667,110.666667 C2.66666667,114.4 5.6,117.333333 9.33333333,117.333333 L62.6666667,117.333333 C66.4,117.333333 69.3333333,114.4 69.3333333,110.666667 L69.3333333,9.33333333 C69.3333333,5.6 66.4,2.66666667 62.6666667,2.66666667 L9.33333333,2.66666667 Z" id="Shape" stroke="#FFFFFF" stroke-width="2" fill-rule="nonzero"></path>
                <g id="Group" transform="translate(28.571429, 5.714286)">
                    <path d="M1.33333333,1.14285714 L14.6666667,1.14285714" id="Path"></path>
                    <path d="M14.6666667,2.28571429 L1.33333333,2.28571429 C0.533333333,2.28571429 0,1.82857143 0,1.14285714 C0,0.457142857 0.533333333,0 1.33333333,0 L14.6666667,0 C15.4666667,0 16,0.457142857 16,1.14285714 C16,1.82857143 15.4666667,2.28571429 14.6666667,2.28571429 Z" id="Path"></path>
                </g>
                <g id="Group" transform="translate(1.142857, 11.428571)">
                    <path d="M1.33797909,1.14285714 L53.5191638,1.14285714" id="Path"></path>
                    <path d="M53.5191638,2.28571429 L1.33797909,2.28571429 C0.535191638,2.28571429 0,1.82857143 0,1.14285714 C0,0.457142857 0.535191638,0 1.33797909,0 L53.5191638,0 C54.3219512,0 54.8571429,0.457142857 54.8571429,1.14285714 C54.8571429,1.82857143 54.3219512,2.28571429 53.5191638,2.28571429 Z" id="Path"></path>
                </g>
                <g id="Group" transform="translate(1.142857, 104.000000)">
                    <path d="M1.34065934,1.14285714 L68.3736264,1.14285714" id="Path"></path>
                    <path d="M68.3736264,2.28571429 L1.34065934,2.28571429 C0.536263736,2.28571429 0,1.82857143 0,1.14285714 C0,0.457142857 0.536263736,0 1.34065934,0 L68.3736264,0 C69.178022,0 69.7142857,0.457142857 69.7142857,1.14285714 C69.7142857,1.82857143 69.178022,2.28571429 68.3736264,2.28571429 Z" id="Path"></path>
                </g>
                <g id="Group" transform="translate(58.285714, 11.428571)">
                    <path d="M1.37142857,1.14285714 L12.3428571,1.14285714" id="Path"></path>
                    <path d="M12.3428571,2.28571429 L1.37142857,2.28571429 C0.548571429,2.28571429 0,1.82857143 0,1.14285714 C0,0.457142857 0.548571429,0 1.37142857,0 L12.3428571,0 C13.1657143,0 13.7142857,0.457142857 13.7142857,1.14285714 C13.7142857,1.82857143 13.1657143,2.28571429 12.3428571,2.28571429 Z" id="Path"></path>
                </g>
                <circle id="Oval" cx="37.1428571" cy="112.571429" r="2.85714286"></circle>
            </g>
        </g>
    </g>
</svg>