<?xml version="1.0" encoding="UTF-8"?>
<svg width="122px" height="63px" viewBox="0 0 122 63" version="1.1" xmlns="http://www.w3.org/2000/svg" xmlns:xlink="http://www.w3.org/1999/xlink">
    <!-- Generator: Sketch 52.5 (67469) - http://www.bohemiancoding.com/sketch -->
    <title>Shape</title>
    <desc>Created with Sketch.</desc>
    <g id="Page-1" stroke="none" stroke-width="1" fill="none" fill-rule="evenodd">
        <g id="How-to-Get-a-Goodnight's-Sleep" transform="translate(-1059.000000, -396.000000)" fill="#FFFFFF" fill-rule="nonzero" stroke="#FFFFFF" stroke-width="1.5">
            <path d="M1156.13636,457.340909 L1156.81818,457.340909 C1161.55898,457.335353 1165.57729,453.851264 1166.25455,449.159091 L1170.45455,449.159091 C1175.72635,449.159091 1180,444.885445 1180,439.613636 L1180,414.727273 C1180,409.455464 1175.72635,405.181818 1170.45455,405.181818 L1166.25455,405.181818 C1165.57729,400.489645 1161.55898,397.005556 1156.81818,397 L1156.13636,397 C1150.86455,397 1146.59091,401.273646 1146.59091,406.545455 L1146.59091,415.245455 L1093.40909,415.245455 L1093.40909,406.545455 C1093.40909,401.273646 1089.13545,397 1083.86364,397 L1083.18182,397 C1078.44102,397.005556 1074.42271,400.489645 1073.74545,405.181818 L1069.54545,405.181818 C1064.27365,405.181818 1060,409.455464 1060,414.727273 L1060,439.613636 C1060,444.885445 1064.27365,449.159091 1069.54545,449.159091 L1073.74545,449.159091 C1074.42271,453.851264 1078.44102,457.335353 1083.18182,457.340909 L1083.86364,457.340909 C1089.13545,457.340909 1093.40909,453.067264 1093.40909,447.795455 L1093.40909,439.095455 L1146.59091,439.095455 L1146.59091,447.795455 C1146.59091,453.067264 1150.86455,457.340909 1156.13636,457.340909 Z M1177.27273,414.727273 L1177.27273,439.613636 C1177.27273,443.379214 1174.22012,446.431818 1170.45455,446.431818 L1166.36364,446.431818 L1166.36364,407.909091 L1170.45455,407.909091 C1174.22012,407.909091 1177.27273,410.961695 1177.27273,414.727273 Z M1149.31818,406.545455 C1149.31818,402.779877 1152.37079,399.727273 1156.13636,399.727273 L1156.81818,399.727273 C1158.62648,399.727273 1160.36071,400.445615 1161.63936,401.724272 C1162.91802,403.002929 1163.63636,404.73716 1163.63636,406.545455 L1163.63636,447.795455 C1163.63636,451.561032 1160.58376,454.613636 1156.81818,454.613636 L1156.13636,454.613636 C1152.37079,454.613636 1149.31818,451.561032 1149.31818,447.795455 L1149.31818,406.545455 Z M1062.72727,439.613636 L1062.72727,414.727273 C1062.72727,410.961695 1065.77988,407.909091 1069.54545,407.909091 L1073.63636,407.909091 L1073.63636,446.431818 L1069.54545,446.431818 C1065.77988,446.431818 1062.72727,443.379214 1062.72727,439.613636 Z M1090.68182,447.795455 C1090.68182,451.561032 1087.62921,454.613636 1083.86364,454.613636 L1083.18182,454.613636 C1079.41624,454.613636 1076.36364,451.561032 1076.36364,447.795455 L1076.36364,406.545455 C1076.36364,402.779877 1079.41624,399.727273 1083.18182,399.727273 L1083.86364,399.727273 C1087.62921,399.727273 1090.68182,402.779877 1090.68182,406.545455 L1090.68182,447.795455 Z M1093.40909,436.368182 L1093.40909,417.959091 L1146.59091,417.959091 L1146.59091,436.368182 L1093.40909,436.368182 Z" id="Shape"></path>
        </g>
    </g>
</svg>