<?xml version="1.0" encoding="UTF-8"?>
<svg width="83px" height="106px" viewBox="0 0 83 106" version="1.1" xmlns="http://www.w3.org/2000/svg" xmlns:xlink="http://www.w3.org/1999/xlink">
    <!-- Generator: Sketch 52.5 (67469) - http://www.bohemiancoding.com/sketch -->
    <title>noun_relax_1739810</title>
    <desc>Created with Sketch.</desc>
    <g id="Page-1" stroke="none" stroke-width="1" fill="none" fill-rule="evenodd" stroke-linecap="round" stroke-linejoin="round">
        <g id="How-to-Get-a-Goodnight's-Sleep" transform="translate(-1078.000000, -625.000000)" stroke="#FFFFFF">
            <g id="noun_relax_1739810" transform="translate(1081.000000, 628.000000)">
                <path d="M57.7575731,33.0279648 C59.6157611,34.2114094 61.2903332,35.6340892 62.7329099,37.254902 C62.7329099,37.254902 63.7046389,6.36034474 48.2948856,0.317850819 C46.92302,-0.217616076 45.358976,-0.0699960212 44.1261202,0.711313765 C42.8932644,1.49262355 42.1544375,2.80442448 42.1568687,4.20775643 L42.1568687,28.1650813 C44.0616458,28.3196739 45.9520651,28.6046238 47.8132645,29.0176908" id="Path" stroke-width="5"></path>
                <path d="M29.4117647,29.4117647 C35.5436111,28.1045752 41.9073692,28.1045752 48.0392157,29.4117647" id="Path" stroke-width="5"></path>
                <path d="M19.3981651,33.3333333 C14.1163978,36.8206952 10.0113863,42.3808502 8.62906518,50.866219 C5.76793305,68.4318114 -3.52445354,73.7895931 1.42798997,84.78112 C8.21373954,99.8405544 38.7254902,100 38.7254902,100 C38.7254902,100 69.2372408,99.8405544 76.0229904,84.78112 C80.9754339,73.7895931 71.6830473,68.4277231 68.8219152,50.866219 C67.4395941,42.3808502 63.3345826,36.8206952 58.0528153,33.3333333" id="Path" stroke-width="5"></path>
                <path d="M19.6934073,33.0279648 C17.8352193,34.2114094 16.1606472,35.6340892 14.7180704,37.254902 C14.7180704,37.254902 13.7463415,6.36034474 29.1560948,0.317850819 C30.5279604,-0.217616076 32.0920044,-0.0699960212 33.3248602,0.711313765 C34.557716,1.49262355 35.2965429,2.80442448 35.2941117,4.20775643 L35.2941117,28.1650813 C33.3893346,28.3196739 31.4989153,28.6046238 29.6377159,29.0176908" id="Path" stroke-width="5"></path>
                <ellipse id="Oval" stroke-width="5" fill="#FFFFFF" cx="38.9215686" cy="82.9019608" rx="3.92156863" ry="4.90196078"></ellipse>
                <path d="M39.1464194,73.7907872 L39.1464194,80.3430904" id="Path" stroke-width="3"></path>
                <path d="M20.5882353,59.7538297 C20.5882353,59.7538297 27.2388236,60.5401064 30.3921569,55.8823529" id="Path" stroke-width="3"></path>
                <path d="M57.8431373,59.7538297 C57.8431373,59.7538297 51.1925489,60.5401064 48.0392157,55.8823529" id="Path" stroke-width="3"></path>
                <path d="M33.3333333,68.627451 C33.3333333,68.627451 35.5924979,72.4739112 38.2352941,72.5490196 C40.8780904,72.4739112 43.1372549,68.627451 43.1372549,68.627451" id="Path" stroke-width="3"></path>
            </g>
        </g>
    </g>
</svg>